<?xml version="1.0" standalone="no"?><!DOCTYPE svg PUBLIC "-//W3C//DTD SVG 1.1//EN" "http://www.w3.org/Graphics/SVG/1.1/DTD/svg11.dtd"><svg t="1506567376881" class="icon" style="" viewBox="0 0 1024 1024" version="1.1" xmlns="http://www.w3.org/2000/svg" p-id="1768" xmlns:xlink="http://www.w3.org/1999/xlink" width="200" height="200"><defs><style type="text/css"></style></defs><path d="M848.554771 0 175.422969 0C140.006696 0 111.313058 28.671377 111.313058 64.020869l0 895.980522c0 35.327232 28.693637 63.976348 64.109911 63.976348l673.131801 0c35.416274 0 64.132171-28.649116 64.132171-63.976348L912.686942 64.020869C912.686942 28.671377 883.971044 0 848.554771 0zM367.752701 927.990957c0 17.674746-14.357949 32.010435-32.054955 32.010435L239.53288 960.001391c-17.719267 0-32.054955-14.357949-32.054955-32.010435l0-96.009043c0-17.674746 14.357949-32.010435 32.054955-32.010435l96.142606 0c17.719267 0 32.054955 14.335688 32.054955 32.010435L367.730441 927.990957zM367.752701 704.006956c0 17.652486-14.357949 31.988174-32.054955 31.988174L239.53288 735.995131c-17.719267 0-32.054955-14.335688-32.054955-31.988174l0-96.009043c0-17.674746 14.357949-31.988174 32.054955-31.988174l96.142606 0c17.719267 0 32.054955 14.313428 32.054955 31.988174L367.730441 704.006956zM367.752701 480.000696c0 17.674746-14.357949 32.010435-32.054955 32.010435L239.53288 512.01113c-17.719267 0-32.054955-14.335688-32.054955-32.010435l0-96.009043c0-17.674746 14.357949-32.010435 32.054955-32.010435l96.142606 0c17.719267 0 32.054955 14.335688 32.054955 32.010435L367.730441 480.000696zM592.137388 927.990957c0 17.674746-14.357949 32.010435-32.054955 32.010435L463.917567 960.001391c-17.719267 0-32.054955-14.357949-32.054955-32.010435l0-96.009043c0-17.674746 14.357949-32.010435 32.054955-32.010435l96.142606 0c17.719267 0 32.054955 14.335688 32.054955 32.010435L592.115128 927.990957zM592.137388 704.006956c0 17.652486-14.357949 31.988174-32.054955 31.988174L463.917567 735.995131c-17.719267 0-32.054955-14.335688-32.054955-31.988174l0-96.009043c0-17.674746 14.357949-31.988174 32.054955-31.988174l96.142606 0c17.719267 0 32.054955 14.313428 32.054955 31.988174L592.115128 704.006956zM592.137388 480.000696c0 17.674746-14.357949 32.010435-32.054955 32.010435L463.917567 512.01113c-17.719267 0-32.054955-14.335688-32.054955-32.010435l0-96.009043c0-17.674746 14.357949-32.010435 32.054955-32.010435l96.142606 0c17.719267 0 32.054955 14.335688 32.054955 32.010435L592.115128 480.000696zM816.522076 927.990957c0 17.674746-14.357949 32.010435-32.054955 32.010435L688.302254 960.001391c-17.719267 0-32.054955-14.357949-32.054955-32.010435l0-96.009043c0-17.674746 14.357949-32.010435 32.054955-32.010435l96.142606 0c17.719267 0 32.054955 14.335688 32.054955 32.010435L816.499815 927.990957zM816.522076 704.006956c0 17.652486-14.357949 31.988174-32.054955 31.988174L688.302254 735.995131c-17.719267 0-32.054955-14.335688-32.054955-31.988174l0-96.009043c0-17.674746 14.357949-31.988174 32.054955-31.988174l96.142606 0c17.719267 0 32.054955 14.313428 32.054955 31.988174L816.499815 704.006956zM816.522076 480.000696c0 17.674746-14.357949 32.010435-32.054955 32.010435L688.302254 512.01113c-17.719267 0-32.054955-14.335688-32.054955-32.010435l0-96.009043c0-17.674746 14.357949-32.010435 32.054955-32.010435l96.142606 0c17.719267 0 32.054955 14.335688 32.054955 32.010435L816.499815 480.000696zM816.522076 255.994435 207.455664 255.994435 207.455664 96.009043l609.044151 0L816.499815 255.994435z" fill="#ffffff" p-id="1769"></path></svg>